<?xml version="1.0" standalone="no"?>
<!DOCTYPE svg PUBLIC "-//W3C//DTD SVG 20010904//EN"
 "http://www.w3.org/TR/2001/REC-SVG-20010904/DTD/svg10.dtd">
<svg version="1.0" xmlns="http://www.w3.org/2000/svg"
 width="512.000000pt" height="512.000000pt" viewBox="0 0 512.000000 512.000000"
 preserveAspectRatio="xMidYMid meet">
<metadata>
Created by potrace 1.11, written by Peter Selinger 2001-2013
</metadata>
<g transform="translate(0.000000,512.000000) scale(0.100000,-0.100000)"
fill="#000000" stroke="none">
<path d="M2328 5053 c-78 -81 -125 -134 -244 -273 -49 -58 -91 -107 -94 -110
-6 -6 -192 -229 -242 -290 -20 -25 -63 -77 -95 -116 -71 -87 -313 -383 -330
-404 -37 -45 -122 -152 -149 -186 -56 -69 -225 -278 -242 -299 -17 -21 -359
-452 -373 -470 -6 -8 202 -366 340 -585 6 -8 46 -75 90 -148 l80 -132 -50
-143 c-28 -78 -52 -146 -53 -152 -3 -10 -6 -17 -28 -78 -6 -15 -8 -54 -5 -86
12 -107 107 -446 180 -636 105 -272 164 -415 259 -625 19 -41 45 -99 58 -128
13 -28 27 -52 32 -52 5 0 5 8 -1 18 -5 9 -11 33 -14 52 -3 19 -24 132 -46 250
-38 198 -113 620 -126 715 -4 22 -8 51 -11 65 -2 14 -9 54 -14 90 -17 107 -21
132 -30 190 -6 30 -8 65 -5 78 2 13 7 50 10 83 4 33 8 68 10 78 2 9 6 44 10
76 4 33 9 69 11 80 2 11 7 45 9 75 3 30 8 62 10 70 2 8 7 44 10 80 4 36 9 68
11 72 4 7 -203 421 -313 627 -19 35 -33 65 -31 67 2 1 89 -119 193 -267 105
-149 195 -275 200 -282 53 -61 74 -105 80 -169 3 -37 7 -75 9 -85 4 -21 12
-84 21 -170 l7 -62 105 -98 c58 -54 115 -106 127 -116 12 -10 39 -35 61 -56
74 -69 130 -116 114 -96 -9 11 -64 90 -122 177 l-106 156 -5 149 c-2 81 -5
185 -5 229 -1 75 -3 84 -32 120 -32 40 -50 63 -132 168 -26 33 -53 68 -60 76
-82 102 -267 341 -267 345 0 3 8 15 19 27 90 108 416 494 421 498 3 3 55 61
115 130 329 376 667 723 794 818 20 15 42 33 49 40 19 17 21 17 82 -30 69 -52
132 -111 290 -269 137 -137 256 -265 410 -439 41 -46 84 -94 95 -105 11 -12
40 -45 65 -74 25 -30 50 -59 55 -65 6 -6 80 -92 164 -191 84 -99 174 -204 199
-234 86 -100 87 -101 73 -123 -12 -20 -191 -249 -201 -258 -9 -8 -255 -323
-265 -339 -10 -18 -12 -46 -19 -284 l-5 -188 -62 -92 c-34 -51 -87 -128 -117
-172 -46 -66 -47 -80 -2 -35 3 3 57 52 120 110 195 178 240 224 245 250 2 14
6 54 10 90 3 36 7 76 10 90 2 14 7 56 10 94 4 45 13 82 28 105 18 30 194 280
346 491 17 25 50 72 71 104 22 33 40 56 40 52 0 -7 -171 -344 -296 -582 -35
-67 -62 -123 -60 -125 2 -2 6 -28 10 -57 3 -28 8 -68 11 -87 10 -68 14 -101
20 -155 4 -30 9 -66 11 -80 2 -14 7 -50 10 -80 3 -30 10 -75 14 -100 8 -44 6
-134 -5 -195 -3 -16 -10 -55 -15 -85 -5 -30 -12 -71 -15 -90 -4 -19 -8 -48
-10 -65 -2 -16 -6 -46 -10 -65 -4 -19 -8 -44 -10 -55 -1 -11 -5 -36 -9 -55 -3
-19 -8 -48 -11 -65 -3 -16 -14 -84 -25 -150 -12 -66 -23 -133 -26 -150 -2 -16
-7 -41 -9 -55 -7 -32 -9 -42 -40 -210 -14 -77 -28 -149 -31 -160 -2 -11 -6
-30 -9 -43 -24 -106 -13 -87 147 263 50 110 190 468 236 605 76 228 130 440
134 524 0 20 -16 83 -36 141 -21 58 -53 147 -71 198 l-33 93 260 425 c291 478
269 422 194 514 -21 25 -43 52 -49 60 -74 94 -327 411 -343 430 -12 14 -45 54
-73 90 -91 115 -243 303 -251 310 -3 3 -52 64 -110 135 -57 72 -127 157 -155
191 -27 33 -68 83 -90 110 -374 458 -687 814 -717 814 -22 0 16 -220 47 -270
3 -5 -16 -34 -43 -62 -27 -29 -57 -63 -67 -75 l-18 -22 -38 20 c-38 19 -39 19
-73 0 l-35 -20 -51 53 c-88 91 -86 84 -56 189 30 108 38 187 18 187 -5 0 -38
-30 -74 -67z"/>
<path d="M2324 3967 c-87 -89 -202 -209 -254 -267 -52 -57 -102 -111 -110
-119 -32 -34 -340 -391 -416 -482 -43 -52 -96 -115 -116 -140 -31 -37 -37 -52
-38 -91 0 -44 3 -49 33 -64 45 -23 206 -135 253 -176 219 -191 398 -414 528
-658 l46 -85 0 57 c0 172 -89 381 -263 613 -61 81 -193 232 -235 270 l-23 20
46 74 c60 97 311 421 400 517 5 6 33 37 60 70 28 32 57 65 65 74 8 9 44 50 80
90 36 41 75 85 88 99 21 23 22 32 22 192 0 93 -2 169 -3 169 -2 0 -75 -73
-163 -163z"/>
<path d="M2631 3964 l2 -171 39 -44 c95 -107 158 -178 203 -229 26 -30 60 -68
74 -85 15 -16 65 -77 111 -135 47 -58 87 -107 91 -110 3 -3 18 -23 34 -45 17
-22 32 -42 35 -45 12 -11 108 -149 139 -199 l33 -54 -50 -51 c-156 -162 -281
-329 -364 -486 -36 -68 -84 -194 -93 -245 -12 -64 -17 -165 -9 -165 5 1 26 35
48 78 114 226 362 529 551 672 33 25 66 51 73 58 8 7 52 35 98 64 l84 51 0 47
c0 46 -4 52 -112 181 -106 128 -201 241 -223 265 -5 6 -35 39 -65 74 -30 35
-59 68 -65 74 -5 6 -44 49 -85 96 -146 164 -360 389 -505 530 l-46 45 2 -171z"/>
<path d="M2429 3497 c-118 -103 -314 -311 -423 -447 -96 -120 -152 -199 -145
-203 2 -1 31 -25 64 -52 145 -118 304 -309 412 -495 l55 -95 -7 59 c-11 91
-32 163 -79 261 -44 92 -134 222 -200 286 l-36 36 22 39 c87 149 221 302 369
420 l56 45 0 109 c0 61 -1 110 -2 110 -2 0 -40 -33 -86 -73z"/>
<path d="M2608 3558 c-4 -11 -3 -171 1 -204 0 -6 21 -25 44 -42 109 -78 298
-290 374 -419 l26 -44 -45 -47 c-98 -103 -173 -218 -219 -336 -35 -91 -62
-226 -48 -241 6 -5 9 -5 9 3 0 20 98 177 173 279 91 120 213 246 305 313 17
13 32 28 32 33 0 8 -66 105 -80 117 -3 3 -32 39 -64 80 -147 190 -497 540
-508 508z"/>
<path d="M2485 3016 c-93 -42 -134 -161 -86 -253 59 -116 214 -135 300 -37
105 119 23 305 -134 304 -27 -1 -63 -7 -80 -14z"/>
<path d="M2015 1804 c1 -10 5 -37 8 -59 4 -22 9 -58 12 -80 2 -22 16 -119 30
-215 13 -96 27 -191 29 -210 3 -19 7 -44 9 -55 3 -11 8 -45 12 -75 4 -30 9
-62 10 -70 1 -8 6 -40 10 -70 4 -30 9 -64 11 -75 3 -11 6 -36 9 -55 7 -53 36
-241 41 -270 3 -14 9 -54 15 -90 5 -36 11 -76 14 -90 9 -54 35 -206 39 -225 7
-35 19 -109 22 -130 1 -11 3 -22 4 -25 0 -3 8 7 16 23 16 29 19 166 28 1059
l4 386 -97 103 c-53 56 -126 134 -162 173 -44 47 -65 63 -64 50z"/>
<path d="M3010 1718 c-52 -55 -125 -132 -161 -170 l-65 -70 2 -216 c10 -948
15 -1189 28 -1226 l14 -40 6 30 c5 25 24 134 40 229 2 17 14 84 25 150 11 66
23 138 26 160 3 22 8 51 10 65 7 37 13 74 30 190 8 58 17 114 19 125 2 11 7
43 10 70 4 28 8 61 11 75 2 14 6 41 9 60 3 19 14 96 25 170 11 75 23 153 26
175 5 44 16 121 20 145 2 8 6 40 10 70 3 30 9 67 11 83 2 15 3 27 2 27 -2 0
-46 -46 -98 -102z"/>
</g>
</svg>
